<svg xmlns="http://www.w3.org/2000/svg" x="0" y="0" version="1.1" viewBox="0 0 85 87"><path fill="#fff" d="M 15 0 C 6.69 0 0 6.69 0 15 L 0 70 C 0 77.7479 5.8179058 84.082101 13.339844 84.904297 L 12.300781 82.800781 C 11.700781 81.500781 10.9 79.700781 10.5 78.800781 L 9.9003906 77.099609 L 7.9003906 79.300781 L 5.9003906 81.5 L 5.6992188 77.300781 C 5.3992188 71.300781 5.9003906 65.099219 6.9003906 60.699219 C 9.2003906 50.899219 16.399219 42.000781 25.699219 37.300781 L 27.800781 36.300781 L 27.300781 34.800781 C 27.000781 34.000781 26.699609 32.299219 26.599609 31.199219 L 26.400391 29.099609 L 24.300781 28.900391 C 21.100781 28.600391 19.400781 27.700391 18.300781 25.400391 C 17.700781 24.200391 17.700391 24.000781 17.900391 20.800781 C 18.100391 16.600781 18.399219 15.700781 19.699219 14.300781 C 21.299219 12.500781 22.400391 12.200391 26.400391 12.400391 C 29.300391 12.600391 29.899219 12.700781 31.199219 13.300781 C 31.999219 13.700781 32.700781 14.099609 32.800781 14.099609 C 32.900781 14.099609 33.800391 13 34.900391 11.5 L 36.800781 8.8007812 L 38 9.5 C 38.7 9.9 39.500391 10.399609 39.900391 10.599609 L 40.599609 11 L 40 12.5 C 39.7 13.3 39.299219 14.700391 39.199219 15.400391 L 39 16.800781 L 40.699219 17 C 46.799219 17.6 51.399609 21.300391 53.099609 26.900391 C 53.599609 28.700391 53.599609 32.200391 53.099609 33.900391 C 52.599609 35.500391 52.6 35.599609 53 35.599609 C 53.7 35.599609 58.400781 37.899609 60.300781 39.099609 C 64.000781 41.499609 68.299219 45.700781 70.699219 49.300781 C 75.199219 56.000781 77.100781 63.300781 76.300781 71.300781 C 75.900781 76.100781 75.000391 79.899609 73.400391 83.599609 L 72.923828 84.712891 C 79.824237 83.359539 85 77.308564 85 70 L 85 15 C 85 6.69 78.31 0 70 0 L 15 0 z M 24.773438 16.707031 C 23.68125 16.674219 23.474609 16.824219 23.099609 17.199219 C 22.699609 17.599219 22.5 18.100781 22.5 18.800781 C 22.5 19.400781 22.400781 20.500391 22.300781 21.400391 C 22.100781 23.500391 22.4 23.899219 24.5 24.199219 C 27.6 24.399219 27.500781 24.400391 27.800781 23.400391 C 28.000781 22.900391 28.5 21.599609 29 20.599609 C 29.5 19.599609 29.900391 18.600781 29.900391 18.300781 C 29.900391 17.400781 28.899219 17.000781 26.199219 16.800781 C 25.599219 16.750781 25.1375 16.717969 24.773438 16.707031 z M 26.300781 19.099609 L 27.599609 19.099609 L 27.599609 20.5 L 27.599609 21.900391 L 26.199219 21.900391 L 24.800781 21.900391 L 24.800781 21 L 24.699219 21 C 24.699219 19.3 24.900781 19.099609 26.300781 19.099609 z M 35.099609 19.199219 L 34.699219 19.800781 C 33.899219 21.000781 32.199219 24.900391 31.699219 26.400391 C 30.999219 28.700391 31.299219 32.299609 32.199219 34.099609 C 33.099219 35.799609 35.499219 38.100781 36.199219 37.800781 C 36.299219 37.900781 36.499219 37.5 36.699219 37 C 37.299219 35.2 39.300781 33.800781 41.300781 33.800781 C 42.400781 33.800781 43.999609 34.700391 45.099609 35.900391 L 46.099609 37.099609 L 47 36 C 49.5 33.2 49.800781 29.300391 47.800781 25.900391 C 46.300781 23.400391 43.499609 21.9 39.599609 21.5 C 37.499609 21.3 37.000391 21.1 35.900391 20 L 35.099609 19.199219 z M 41.099609 37.900391 C 39.899609 38.000391 40.199609 38.899219 42.099609 41.199219 L 43.900391 43.400391 L 42.900391 44.199219 C 41.800391 45.199219 41.700391 45.4 42.400391 46 C 42.900391 46.5 43 46.399219 44 45.699219 L 45.099609 45 L 45.800781 45.599609 C 46.200781 45.899609 46.400391 46.4 46.400391 46.5 C 46.400391 46.7 45.599219 47.399219 44.699219 48.199219 C 43.799219 48.899219 43.099609 49.700391 43.099609 49.900391 C 43.099609 50.200391 43.6 50.999609 44.5 52.099609 C 44.8 52.699609 45.3 52.499219 47 51.199219 C 47.9 50.499219 48.700391 49.900391 48.900391 49.900391 C 49.000391 49.900391 49.299609 50.199609 49.599609 50.599609 C 50.099609 51.399609 51.000391 51.399219 51.400391 50.699219 C 51.700391 50.199219 51.700781 50.100391 45.800781 42.900391 C 42.300781 38.600391 41.599609 37.900391 41.099609 37.900391 z M 50.361328 39.644531 C 50.054883 39.673242 49.862109 39.837109 49.599609 40.099609 L 49 40.699219 L 51.599609 43.900391 C 52.999609 45.600391 54.499219 47.5 54.699219 48 C 55.299219 49.2 55.400781 51.100781 54.800781 52.300781 C 54.000781 54.000781 51.599219 55.200781 49.699219 54.800781 C 48.899219 54.600781 48.600781 54.700781 47.800781 55.300781 C 45.600781 56.900781 43.199219 56.499609 41.199219 54.099609 C 39.599219 52.299609 39.199609 51.399609 39.099609 49.599609 C 39.099609 48.699609 38.799609 47.599219 38.599609 47.199219 C 38.299609 46.599219 38.199219 45.9 38.199219 45 L 38.300781 43.599609 L 37 43.300781 C 35.2 42.800781 33.100391 41.800391 31.900391 40.900391 C 31.300391 40.500391 30.799609 40.099609 30.599609 40.099609 C 30.399609 40.099609 29.099219 40.700391 27.699219 41.400391 C 17.999219 46.400391 11.699219 55.699219 10.699219 66.199219 C 10.599219 67.199219 10.500391 68.5 10.400391 69 L 10.300781 69.900391 L 11.400391 68.800781 C 11.900391 68.300781 16.299609 63.699609 21.099609 58.599609 C 25.899609 53.499609 29.800391 49.400391 29.900391 49.400391 C 30.000391 49.500391 29.5 50.999219 29 52.699219 C 25.7 63.099219 24.999609 65.099219 25.099609 65.199219 C 25.099609 65.199219 26.299609 64.800781 27.599609 64.300781 C 36.099609 60.600781 46 60.100391 56.5 62.900391 C 61.2 64.100391 63.000781 64.100391 65.300781 62.900391 C 66.600781 62.200391 67.099219 61.800781 67.699219 60.800781 C 68.799219 59.100781 68.899219 56.7 68.199219 54.5 C 66.499219 49.7 59.899219 43.500781 53.699219 40.800781 C 51.699219 39.925781 50.87207 39.59668 50.361328 39.644531 z M 71.699219 63.199219 L 70.400391 64.599609 C 67.200391 68.099609 62.499219 69.100391 56.199219 67.400391 C 50.799219 66.000391 48.6 65.699219 43.5 65.699219 C 39.6 65.699219 38.299219 65.800781 36.199219 66.300781 C 30.399219 67.600781 26.299609 69.499609 20.599609 73.599609 C 18.499609 75.099609 16.799219 76.300781 16.699219 76.300781 C 16.599219 76.300781 16.900781 75.3 17.300781 74 C 17.700781 72.7 18.400781 70.599219 18.800781 69.199219 L 19.599609 66.699219 L 18.699219 67.599609 C 18.199219 68.099609 16.799609 69.500781 15.599609 70.800781 L 13.5 73.099609 L 14 75 C 14.6 77.5 16 80.600391 17.5 82.900391 C 18.066184 83.844031 18.731829 84.887098 18.695312 85 L 67.787109 85 L 69 82.599609 C 70.311949 80.005614 71.300781 76.399219 71.800781 73.199219 C 72.100781 70.999219 72.200391 65.000391 71.900391 63.900391 L 71.699219 63.199219 z M 33.099609 74.300781 C 34.799609 74.300781 36 75.499219 36 77.199219 C 36 78.999219 34.9 79.999609 33 80.099609 C 32 80.099609 31.6 79.900781 31 79.300781 C 30.4 78.700781 30.199219 78.300781 30.199219 77.300781 C 30.199219 75.400781 31.299609 74.300781 33.099609 74.300781 z M 52.099609 74.300781 C 53.899609 74.300781 54.9 75.400781 55 77.300781 C 55 78.400781 54.899219 78.700781 54.199219 79.300781 C 53.499219 79.900781 53.199219 80.099609 52.199219 80.099609 C 51.299219 80.099609 50.700781 79.899609 50.300781 79.599609 C 48.000781 77.799609 49.199609 74.300781 52.099609 74.300781 z"/></svg>